<?xml version="1.0" standalone="no"?>
<!DOCTYPE svg PUBLIC "-//W3C//DTD SVG 20010904//EN"
 "http://www.w3.org/TR/2001/REC-SVG-20010904/DTD/svg10.dtd">
<svg version="1.0" xmlns="http://www.w3.org/2000/svg"
 width="860.000000pt" height="700.000000pt" viewBox="0 0 860.000000 700.000000"
 preserveAspectRatio="xMidYMid meet">

<g transform="translate(0.000000,700.000000) scale(0.100000,-0.100000)"
fill="#ffffff" stroke="none">
<path d="M4000 6164 c-19 -7 -30 -13 -25 -14 6 0 -1 -9 -15 -20 l-25 -19 23
-17 c51 -36 75 -61 68 -72 -12 -20 -30 -13 -44 16 -19 41 -55 64 -84 53 -13
-6 -17 -10 -10 -10 6 -1 12 -6 12 -12 0 -7 -11 -9 -28 -6 -23 5 -38 -2 -76
-33 -26 -22 -55 -48 -64 -59 -23 -26 -72 -56 -72 -43 0 5 25 33 56 61 31 29
55 54 52 56 -11 11 -109 -91 -147 -152 -23 -37 -49 -79 -58 -93 -8 -14 10 2
41 35 30 33 53 66 51 73 -3 7 0 10 5 7 12 -7 97 44 125 75 10 11 27 20 38 20
11 0 35 11 53 25 37 28 54 32 54 11 0 -7 9 -16 20 -19 26 -7 37 -35 22 -56 -7
-9 -16 -26 -22 -38 -9 -22 -30 -32 -30 -14 0 4 -11 20 -25 35 -18 20 -23 32
-16 43 7 14 11 14 27 -5 33 -39 61 -20 30 21 -16 21 -39 22 -56 2 -7 -8 -17
-15 -22 -15 -18 0 -165 -105 -221 -159 -130 -124 -316 -426 -459 -746 -20 -44
-68 -150 -106 -235 -100 -220 -278 -625 -362 -825 -40 -93 -109 -253 -155
-355 -129 -290 -152 -342 -173 -395 -11 -27 -59 -142 -107 -255 -48 -113 -102
-241 -120 -285 -54 -133 -111 -264 -165 -385 -28 -63 -66 -149 -84 -190 -106
-241 -313 -665 -344 -703 -6 -7 -22 -34 -38 -62 -29 -54 -127 -186 -184 -249
-19 -22 -73 -68 -119 -103 -46 -34 -78 -63 -69 -63 36 0 178 81 238 136 92 85
242 299 223 318 -4 3 -2 6 4 6 6 0 25 35 43 77 19 43 37 83 41 88 7 10 55 124
66 155 2 8 -31 -55 -74 -140 -118 -232 -151 -287 -222 -380 -73 -95 -149 -169
-199 -194 -48 -25 -50 -14 -2 18 85 56 248 277 361 491 90 168 229 456 229
472 0 2 30 70 66 151 36 81 91 203 122 272 31 69 62 132 70 140 12 13 12 12 3
-10 -6 -14 -30 -74 -55 -135 -24 -60 -68 -159 -96 -220 -29 -60 -65 -141 -80
-180 -15 -38 -44 -108 -64 -154 -20 -46 -35 -86 -33 -88 3 -2 11 13 20 34 8
21 28 67 45 103 48 106 185 413 257 580 38 85 103 229 145 320 43 91 94 208
115 260 40 103 108 263 161 378 19 41 34 76 34 78 0 3 12 31 27 62 15 31 53
125 84 207 32 83 58 146 59 140 1 -16 16 14 53 106 19 46 66 150 106 232 39
81 71 158 71 171 0 13 7 27 16 30 8 3 12 10 9 16 -3 5 -1 10 5 10 7 0 9 8 5
21 -5 16 -4 19 5 14 8 -5 11 -4 6 3 -3 6 3 28 14 49 11 21 20 42 20 46 0 5 18
46 39 90 54 113 121 263 121 270 0 3 44 97 98 209 54 112 111 235 127 273 44
107 176 297 194 280 2 -3 -2 -11 -11 -18 -22 -17 -126 -174 -133 -200 -10 -34
-61 -149 -137 -307 -73 -151 -127 -283 -109 -264 6 5 20 35 31 65 16 46 219
459 246 500 5 8 9 25 9 39 0 15 5 24 13 22 6 -1 12 4 12 11 0 8 19 40 42 73
23 32 42 67 43 77 1 18 92 117 107 117 5 0 -10 -25 -33 -56 -56 -76 -45 -77
16 -1 47 60 103 116 116 117 3 0 23 -16 44 -35 34 -33 36 -37 22 -53 -9 -9
-25 -37 -37 -62 -11 -25 -30 -61 -40 -80 -21 -39 -57 -128 -225 -570 -154
-403 -185 -480 -373 -915 -176 -407 -191 -440 -380 -859 -72 -159 -128 -294
-125 -300 3 -6 2 -7 -3 -3 -13 13 -77 -124 -64 -137 8 -8 9 -5 4 8 -5 12 -4
17 2 13 6 -3 16 15 23 40 9 27 17 40 21 33 5 -8 16 10 29 46 48 129 54 144 60
144 4 0 13 17 20 38 14 39 46 110 116 257 24 50 62 135 85 190 23 55 57 135
76 177 19 43 34 79 34 82 0 2 22 51 49 108 27 58 84 187 126 289 42 101 91
216 107 254 35 78 221 552 305 775 30 80 69 179 88 220 19 41 39 89 45 105
l12 30 14 -50 c18 -70 17 -110 -6 -154 -17 -35 -120 -304 -120 -316 0 -26
-270 -682 -385 -935 -31 -69 -68 -152 -82 -185 -13 -33 -30 -73 -38 -90 -78
-177 -267 -646 -262 -651 4 -5 102 217 152 346 21 52 46 113 55 135 10 22 32
74 48 115 17 41 51 122 77 180 25 58 52 121 60 141 7 19 27 64 45 99 37 73 77
164 156 358 30 72 79 194 110 270 84 205 194 493 194 510 0 2 5 0 10 -3 6 -3
10 4 10 17 0 13 4 29 9 37 7 11 13 7 25 -17 12 -22 14 -46 9 -94 -4 -50 -2
-73 12 -101 23 -48 19 -64 -55 -242 -34 -82 -97 -235 -140 -340 -43 -104 -124
-300 -180 -435 -56 -135 -134 -324 -172 -420 -38 -96 -75 -184 -82 -195 -7
-11 -20 -42 -31 -70 -10 -27 -39 -95 -65 -150 -26 -55 -78 -167 -115 -249 -38
-81 -86 -175 -107 -209 -63 -96 -191 -373 -323 -698 -35 -86 -75 -172 -88
-192 -13 -19 -48 -91 -77 -159 -65 -152 -103 -235 -142 -313 -106 -209 -132
-256 -165 -304 -21 -30 -54 -66 -73 -80 l-35 -26 25 32 c40 51 62 83 108 158
57 91 59 96 28 60 -47 -54 -156 -221 -161 -245 -3 -13 -21 -40 -42 -59 -26
-25 -32 -28 -20 -11 9 14 22 36 28 50 29 67 53 112 103 193 30 49 103 202 162
340 59 139 130 302 159 362 98 203 136 289 177 390 22 55 64 151 93 213 32 66
51 120 48 129 -5 12 -3 14 7 8 9 -5 11 -4 6 3 -4 7 10 51 32 99 21 49 50 116
63 150 13 34 26 57 30 52 3 -6 9 -1 12 10 3 12 1 19 -4 15 -6 -3 -3 11 5 31 9
21 16 39 16 42 0 2 5 1 10 -2 6 -3 10 0 10 8 0 8 24 63 54 123 59 120 78 163
131 304 20 52 40 97 44 100 10 6 231 572 231 590 -1 12 -26 -41 -53 -110 -16
-41 -48 -124 -72 -185 -23 -60 -57 -148 -75 -195 -18 -47 -38 -92 -45 -100 -7
-8 -42 -90 -78 -181 -61 -154 -115 -267 -158 -329 -9 -14 -42 -86 -72 -160
-30 -74 -84 -200 -120 -280 -35 -80 -87 -201 -116 -270 -29 -69 -79 -183 -111
-255 -32 -71 -80 -179 -105 -240 -71 -166 -236 -515 -314 -661 -37 -71 -72
-140 -76 -154 -12 -40 -104 -204 -133 -237 -32 -36 -132 -118 -164 -133 -13
-7 -7 1 12 16 110 88 162 149 207 243 42 88 66 151 58 151 -2 0 -29 -49 -60
-109 -38 -72 -73 -125 -106 -157 -58 -57 -63 -54 -14 7 19 24 35 50 35 57 0 6
5 12 10 12 6 0 10 5 10 11 0 6 32 66 70 134 39 67 82 151 96 186 14 34 45 101
69 148 39 79 118 260 197 451 17 41 66 153 110 249 73 161 99 231 85 231 -3 0
-11 -17 -18 -37 -6 -21 -40 -96 -75 -168 -34 -71 -79 -170 -99 -220 -20 -49
-47 -112 -60 -140 -61 -132 -116 -255 -134 -300 -25 -65 -161 -345 -201 -413
-83 -146 -167 -240 -247 -277 -21 -10 -50 -26 -65 -36 -50 -36 -41 -19 12 21
29 22 86 74 126 115 62 65 82 97 142 218 71 145 96 211 107 282 4 29 -3 17
-24 -41 -71 -196 -155 -357 -230 -437 -125 -133 -340 -246 -470 -248 -41 0
-50 -3 -36 -9 33 -14 131 -11 208 6 80 18 237 96 306 152 31 26 40 30 32 14
-16 -30 -71 -73 -155 -121 -54 -31 -98 -47 -167 -61 -98 -19 -78 -27 26 -10
33 6 119 19 192 30 213 31 342 92 433 203 27 34 77 94 110 132 89 103 145 178
146 196 2 22 57 115 61 102 2 -6 -8 -28 -22 -48 -14 -21 -25 -43 -25 -49 0 -6
9 3 19 20 11 18 24 35 30 38 6 4 11 17 11 29 0 12 9 46 19 75 30 81 185 354
235 412 l21 25 -24 -20 c-12 -11 -41 -49 -63 -85 -21 -36 -64 -103 -94 -149
-29 -47 -63 -110 -75 -140 -11 -31 -37 -81 -58 -111 -21 -30 -48 -73 -59 -95
-12 -22 -31 -51 -43 -65 l-21 -25 20 35 c11 19 36 68 57 108 20 39 40 72 45
72 5 0 6 7 3 17 -4 11 -3 14 5 9 7 -4 12 -1 12 9 0 8 4 23 9 33 44 85 141 293
147 315 5 21 9 25 15 15 6 -9 9 -6 9 11 0 13 27 80 60 148 33 69 60 127 60
130 0 4 82 197 105 248 8 17 33 75 56 130 59 145 130 288 148 303 9 8 10 11 4
7 -7 -3 -13 -3 -13 2 1 18 37 112 52 134 8 13 17 35 21 49 6 30 90 223 197
455 43 94 130 283 193 420 63 138 150 324 192 415 85 183 269 593 305 682 13
32 25 57 26 55 1 -1 36 -76 79 -167 42 -91 95 -203 117 -250 22 -47 75 -159
118 -250 75 -159 124 -261 270 -565 133 -277 350 -713 418 -843 39 -73 67
-132 64 -130 -4 2 -29 15 -57 29 -139 73 -424 181 -596 224 -211 54 -345 69
-599 69 -224 -1 -242 -2 -389 -33 -143 -29 -267 -72 -316 -109 l-20 -14 20 7
c97 35 140 48 205 60 147 29 176 34 220 39 l45 5 -55 -19 c-52 -18 -53 -19
-15 -15 216 26 310 29 512 15 103 -7 208 -16 233 -21 41 -7 40 -8 -15 -4 -277
21 -484 25 -614 10 -75 -8 -143 -14 -151 -13 -66 10 -316 -69 -391 -123 -43
-31 -28 -35 19 -5 98 61 280 106 438 106 61 0 170 5 242 11 108 9 162 8 299
-5 192 -19 256 -27 250 -32 -4 -5 -318 22 -381 32 -21 3 -87 1 -145 -5 -58 -6
-167 -15 -241 -21 -138 -10 -212 -27 -355 -84 -87 -35 -165 -76 -165 -88 0 -5
19 2 43 15 115 67 372 130 587 146 120 9 322 3 335 -10 3 -4 -68 -10 -157 -13
-314 -14 -490 -49 -673 -135 -95 -45 -191 -108 -181 -119 3 -2 15 6 28 18 30
28 170 95 266 127 186 60 282 75 522 80 188 4 231 3 260 -10 33 -14 19 -15
-200 -15 -231 1 -237 0 -365 -31 -166 -41 -245 -66 -320 -104 -57 -28 -175
-105 -175 -114 0 -5 2 -4 90 52 93 59 169 89 332 130 131 33 157 36 318 40
149 3 162 3 90 -5 -171 -19 -278 -43 -438 -95 -180 -60 -316 -132 -387 -206
-39 -40 -38 -40 25 10 36 29 88 64 115 78 163 82 452 167 630 183 152 14 422
22 428 13 7 -11 -239 -33 -363 -33 -133 0 -364 -56 -504 -121 -131 -62 -199
-105 -264 -166 -34 -33 -37 -38 -12 -19 133 100 284 184 405 226 28 9 117 30
199 45 133 25 158 27 226 18 49 -6 101 -7 146 -1 38 5 110 8 159 5 50 -3 142
-7 205 -10 205 -9 170 -22 -63 -23 -252 -2 -294 -8 -491 -63 -304 -87 -562
-221 -791 -413 -102 -85 -163 -148 -254 -263 -35 -44 -49 -64 -31 -45 95 103
262 268 315 310 307 244 716 415 1040 435 50 3 126 8 170 10 55 4 75 2 65 -5
-8 -5 -30 -10 -48 -10 -60 0 -286 -50 -412 -92 -234 -76 -432 -171 -605 -292
-146 -101 -187 -137 -428 -375 -153 -151 -238 -244 -285 -311 -80 -112 -96
-138 -105 -165 -6 -19 -6 -19 6 -2 172 261 168 256 369 452 375 366 657 545
1068 679 160 52 433 103 460 86 8 -5 12 -10 7 -10 -22 0 -254 -54 -330 -76
-48 -14 -147 -49 -220 -78 -308 -123 -524 -256 -792 -487 -105 -90 -358 -346
-401 -404 -16 -22 -31 -42 -34 -45 -3 -3 -12 -14 -20 -26 -8 -11 5 2 30 30
215 243 490 491 705 638 202 137 427 246 677 329 135 44 377 99 438 99 25 0
107 -63 415 -319 331 -276 754 -707 1032 -1051 177 -219 344 -370 498 -447
120 -61 204 -84 432 -119 17 -2 33 -11 36 -18 10 -26 71 -27 206 -1 74 14 139
25 145 24 14 -1 -85 -49 -101 -49 -7 0 -13 -5 -13 -12 0 -8 36 -9 143 -3 78 5
187 8 242 7 55 -1 107 2 115 7 8 6 12 11 10 13 -3 2 -45 23 -93 48 -60 30 -94
54 -103 72 -17 32 -53 45 -162 57 -89 9 -120 26 -191 101 -138 146 -264 356
-441 735 -232 497 -414 903 -530 1180 -20 50 -92 216 -160 370 -67 154 -166
381 -220 505 -552 1272 -737 1658 -915 1915 -112 162 -251 274 -401 324 -53
17 -84 20 -235 19 -113 -1 -186 -6 -209 -14z m135 -14 c-3 -5 -15 -10 -25 -10
-18 0 -49 -10 -98 -33 -16 -8 -26 -7 -33 0 -8 8 1 17 32 31 46 21 135 30 124
12z m122 -11 c22 -8 24 -12 13 -19 -19 -12 -41 -12 -60 0 -13 9 -13 11 0 20
18 12 13 12 47 -1z m-142 -29 c-3 -5 -11 -10 -17 -10 -5 0 -21 -9 -35 -20 -26
-20 -43 -19 -43 4 0 7 17 17 38 23 50 14 64 15 57 3z m70 -2 c31 -14 32 -24 3
-34 -13 -4 -29 -16 -37 -27 -14 -19 -14 -19 -32 4 -24 31 -24 39 0 39 10 0 21
7 25 15 7 18 8 18 41 3z m190 -8 c3 -5 -1 -10 -9 -10 -8 0 -18 5 -21 10 -3 6
1 10 9 10 8 0 18 -4 21 -10z m-50 -14 c19 -13 18 -15 -17 -21 -46 -9 -69 2
-43 22 24 17 36 16 60 -1z m149 -69 c36 -32 71 -68 78 -81 7 -13 34 -53 60
-87 82 -113 384 -673 463 -859 13 -30 46 -107 75 -170 28 -63 57 -131 65 -150
7 -19 31 -73 52 -120 22 -47 61 -132 87 -190 26 -58 58 -126 72 -152 13 -26
31 -64 38 -85 7 -21 27 -67 44 -103 30 -65 68 -151 157 -350 26 -58 62 -136
81 -175 18 -38 40 -90 49 -114 8 -24 19 -49 24 -55 5 -6 43 -87 84 -181 62
-142 188 -406 304 -640 13 -27 55 -120 93 -207 38 -86 108 -234 155 -330 48
-95 99 -206 115 -246 15 -39 48 -107 73 -150 24 -42 59 -108 76 -145 17 -38
52 -96 78 -130 51 -66 165 -183 198 -205 11 -7 6 -5 -11 5 -77 45 -131 95
-198 183 -78 102 -167 254 -211 360 -15 36 -66 144 -114 240 -47 97 -92 190
-100 208 -7 18 -15 32 -16 30 -9 -8 80 -284 105 -327 14 -24 12 -9 -5 39 -31
88 -6 47 40 -67 62 -152 170 -379 184 -387 6 -4 11 -15 11 -25 0 -30 93 -152
179 -233 87 -84 94 -100 15 -41 -102 78 -232 236 -270 329 -29 72 -78 169
-104 209 -34 50 -228 428 -266 515 -15 36 -35 76 -44 90 -9 14 -27 50 -40 80
-41 99 -79 179 -195 410 -124 247 -375 781 -448 950 -25 58 -80 179 -122 270
-42 91 -95 206 -117 255 -22 50 -106 234 -188 410 -81 176 -185 401 -230 500
-115 252 -268 554 -335 660 l-57 90 22 17 c12 10 26 18 30 18 11 0 103 -157
208 -356 88 -168 249 -504 382 -799 174 -386 204 -452 217 -485 8 -19 26 -60
40 -90 119 -261 174 -384 223 -500 79 -186 129 -296 189 -423 28 -60 51 -110
51 -113 0 -2 81 -167 179 -366 228 -462 294 -602 322 -677 12 -34 24 -59 27
-56 3 2 -1 33 -8 67 -9 46 -76 193 -245 538 -263 537 -327 671 -465 990 -54
124 -162 367 -240 540 -78 173 -198 441 -267 595 -276 618 -372 812 -515 1038
-37 60 -68 115 -68 123 0 8 -6 14 -12 15 -15 1 -75 69 -80 89 -2 8 -15 23 -30
32 -16 10 -28 23 -28 29 0 17 14 8 84 -54z m84 -20 c39 -45 47 -57 39 -57 -2
0 -30 30 -63 67 -32 37 -50 61 -38 53 12 -8 40 -37 62 -63z m-698 55 c0 -5
-12 -14 -27 -21 -28 -13 -28 -13 -9 8 20 22 36 27 36 13z m384 -21 c0 -16 5
-21 23 -21 31 0 52 -42 33 -65 -7 -8 -23 -15 -35 -15 -17 0 -26 -9 -34 -31 -9
-27 -13 -30 -26 -19 -21 18 -19 41 5 47 11 3 21 13 21 22 1 9 2 23 3 31 0 9
-10 17 -28 20 -40 7 -43 25 -9 44 35 19 48 15 47 -13z m141 -1 c3 -5 -8 -16
-24 -24 -27 -14 -31 -14 -47 1 -15 16 -15 18 6 35 22 18 50 13 65 -12z m-278
-2 c20 -19 31 -48 18 -48 -12 0 -55 45 -55 57 0 19 10 16 37 -9z m494 -25 c13
-16 12 -17 -3 -4 -10 7 -18 15 -18 17 0 8 8 3 21 -13z m-531 -10 c0 -17 45
-63 62 -63 4 0 8 -9 8 -20 0 -11 -4 -20 -8 -20 -5 0 -14 -12 -21 -27 l-13 -28
-15 28 c-8 16 -12 35 -9 42 2 7 -1 16 -9 19 -21 8 -48 54 -41 71 8 21 46 19
46 -2z m382 -42 l48 -48 -26 -24 -26 -24 -17 25 c-9 13 -29 39 -45 57 -23 27
-26 36 -16 48 19 23 31 18 82 -34z m-274 27 c7 -7 12 -20 12 -30 0 -27 -46
-24 -53 4 -10 36 15 52 41 26z m581 -103 c83 -113 253 -399 280 -470 9 -25
-60 76 -90 130 -18 33 -44 78 -59 100 -15 22 -53 85 -85 140 -31 55 -76 123
-98 150 -28 35 -32 42 -13 25 16 -14 45 -47 65 -75z m-729 41 c0 -7 -9 -29
-19 -49 l-19 -37 -21 33 c-25 41 -26 47 -6 47 8 0 15 8 15 18 0 10 3 22 7 25
8 9 43 -22 43 -37z m320 26 c0 -5 16 -27 36 -50 l36 -42 -24 -29 c-13 -17 -28
-30 -34 -30 -6 -1 -27 22 -47 51 l-36 52 20 28 c19 26 49 38 49 20z m412 -152
c34 -59 123 -202 197 -315 61 -94 233 -437 311 -621 34 -82 91 -207 125 -279
35 -71 80 -173 100 -225 21 -52 56 -133 77 -180 22 -47 55 -119 73 -160 17
-41 61 -140 97 -220 339 -754 486 -1104 524 -1246 33 -123 57 -182 179 -429
358 -730 409 -822 536 -961 50 -55 53 -60 15 -24 -135 126 -194 207 -286 394
-49 100 -98 197 -109 216 -17 30 -123 253 -245 514 -20 43 -63 158 -95 255
-33 97 -81 223 -109 281 -27 58 -66 148 -87 200 -21 52 -61 147 -90 210 -64
142 -155 344 -270 600 -48 107 -107 238 -130 291 -24 53 -62 140 -84 195 -22
54 -53 127 -70 162 -17 34 -31 65 -31 68 0 3 -16 37 -35 75 -19 38 -65 136
-101 217 -177 390 -501 985 -597 1093 -49 56 -41 55 17 -1 31 -30 71 -80 88
-110z m-89 42 c57 -87 102 -161 145 -242 19 -36 40 -72 47 -80 42 -53 345
-661 360 -723 4 -15 11 -30 16 -33 5 -3 10 -17 10 -32 1 -20 3 -22 6 -8 4 13
16 -7 39 -65 19 -46 45 -106 58 -134 13 -27 32 -74 42 -102 10 -29 24 -53 30
-53 7 0 19 -19 27 -42 26 -72 97 -241 107 -253 5 -7 21 -40 34 -76 28 -75 107
-251 178 -399 71 -147 143 -308 158 -354 7 -21 29 -73 50 -115 20 -42 41 -87
45 -101 14 -47 57 -145 104 -240 50 -99 86 -194 71 -185 -5 3 -14 22 -21 43
-7 20 -25 62 -41 92 -62 119 -190 393 -226 486 -22 55 -100 227 -174 384 -75
157 -148 319 -164 360 -15 41 -35 89 -45 105 -9 17 -36 75 -60 130 -24 55 -47
102 -51 103 -4 2 -8 8 -8 13 0 5 -18 46 -39 91 -50 106 -119 258 -215 474 -77
174 -241 503 -301 604 -18 30 -59 104 -91 163 -33 59 -83 144 -111 189 -29 45
-53 84 -53 86 0 13 33 -27 73 -86z m-713 18 l20 -40 -21 -42 c-12 -23 -27 -58
-34 -77 l-13 -36 -12 30 c-23 59 -22 88 5 148 15 31 28 57 31 57 2 0 13 -18
24 -40z m229 12 c10 -25 9 -34 -10 -67 l-22 -37 -18 23 c-23 29 -23 38 -3 77
19 40 38 41 53 4z m-124 -63 c-8 -58 -17 -67 -37 -36 -29 43 -29 61 -1 91 23
25 27 26 35 12 5 -10 7 -39 3 -67z m240 24 c41 -46 41 -48 26 -75 -9 -15 -20
-26 -26 -25 -15 5 -65 99 -65 125 0 34 20 27 65 -25z m237 -170 c86 -160 228
-445 288 -578 12 -27 100 -219 195 -425 171 -371 188 -409 267 -585 22 -49 62
-137 88 -195 79 -173 110 -241 110 -245 0 -2 39 -86 86 -187 47 -100 102 -219
122 -263 20 -44 82 -172 138 -285 55 -113 106 -219 112 -235 7 -17 20 -43 30
-60 10 -16 29 -56 41 -87 13 -32 27 -55 32 -52 5 3 9 -2 9 -11 0 -9 20 -59 44
-113 24 -53 55 -123 69 -154 14 -32 31 -58 36 -58 6 0 11 -7 11 -15 0 -8 32
-77 72 -152 39 -76 101 -196 138 -268 36 -71 80 -150 98 -174 18 -24 39 -66
47 -93 21 -71 109 -211 174 -278 103 -106 109 -117 37 -66 -16 11 -26 15 -22
8 4 -7 3 -12 -3 -12 -14 0 -125 142 -168 215 -42 71 -62 86 -38 28 8 -20 13
-38 11 -40 -2 -2 -12 17 -22 44 -10 26 -31 70 -46 97 -16 26 -35 74 -43 105
-16 58 -105 254 -113 246 -3 -2 5 -25 17 -51 12 -25 20 -48 18 -51 -3 -2 -17
22 -32 54 -135 285 -342 703 -481 973 -111 214 -271 544 -399 820 -67 146
-146 315 -175 375 -29 61 -94 200 -144 310 -121 261 -291 610 -553 1136 -117
235 -213 430 -213 435 0 9 51 64 60 64 3 0 49 -80 102 -177z m-262 43 c0 -21
-37 -86 -50 -86 -13 0 -50 83 -50 112 0 14 7 42 16 63 l15 37 34 -53 c19 -30
35 -62 35 -73z m-159 82 c17 -32 12 -96 -11 -132 l-19 -31 -16 37 c-19 47 -19
58 1 108 18 46 28 49 45 18z m-113 -23 c16 -35 15 -55 -7 -111 -11 -27 -22
-57 -25 -68 -5 -14 -9 -16 -20 -7 -25 21 -25 64 0 125 13 33 24 65 24 73 0 22
16 15 28 -12z m524 -353 c170 -344 257 -534 393 -862 42 -102 120 -282 172
-400 53 -118 134 -303 180 -410 152 -349 142 -327 317 -693 36 -76 66 -140 66
-142 0 -2 58 -124 128 -272 71 -147 137 -293 147 -323 9 -30 24 -66 32 -78 8
-13 12 -26 9 -29 -8 -8 -121 151 -161 225 -44 84 -323 649 -392 797 -29 61
-71 151 -93 200 -67 144 -560 1246 -560 1251 0 2 -33 82 -74 177 -41 94 -83
195 -94 222 -67 171 -182 435 -227 525 -51 98 -53 106 -39 127 8 13 18 23 22
23 4 0 82 -152 174 -338z m-470 232 l20 -46 -28 -67 c-15 -36 -32 -67 -36 -69
-19 -8 -7 -78 22 -129 17 -29 30 -58 30 -65 0 -7 19 -51 41 -98 23 -47 81
-170 129 -275 197 -426 787 -1614 925 -1864 47 -85 84 -156 81 -158 -6 -7 -76
42 -90 64 -38 54 -576 1128 -576 1148 0 2 -47 100 -105 219 -268 553 -417 880
-413 908 3 19 0 28 -9 28 -21 0 -53 61 -47 87 4 14 2 23 -5 23 -6 0 -11 7 -11
16 0 9 -8 23 -17 29 -12 9 -17 26 -17 55 2 43 24 84 24 43 0 -12 3 -24 8 -26
4 -3 7 25 7 61 0 58 27 162 42 162 2 0 13 -21 25 -46z m123 3 c14 -24 25 -50
25 -58 0 -20 -42 -119 -51 -119 -9 0 -36 67 -44 113 -6 28 -2 44 15 72 12 19
23 35 25 35 2 0 16 -20 30 -43z m188 -109 c35 -73 96 -209 135 -303 151 -368
333 -784 667 -1530 142 -316 448 -960 528 -1110 20 -38 36 -74 34 -79 -2 -5
-30 17 -63 50 -57 55 -71 81 -236 414 -141 285 -392 820 -515 1100 -11 25 -69
151 -130 280 -124 266 -217 469 -293 645 -29 66 -94 215 -145 330 -51 116 -96
221 -100 233 -7 24 32 115 46 107 3 -3 36 -64 72 -137z m-853 68 c0 -2 -8 -10
-17 -17 -16 -13 -17 -12 -4 4 13 16 21 21 21 13z m-91 -55 c-6 -16 -44 -98
-86 -183 -75 -152 -251 -534 -303 -658 -15 -36 -72 -162 -127 -280 -101 -215
-212 -477 -283 -665 -20 -55 -67 -161 -102 -235 -36 -74 -76 -166 -88 -205
-13 -38 -25 -65 -27 -59 -6 19 34 129 109 294 38 85 113 265 167 400 55 135
140 335 191 445 51 110 123 270 160 355 98 224 150 337 277 593 106 214 136
266 112 198z m671 -8 c0 -8 12 -37 26 -63 l26 -48 -25 -38 c-13 -22 -27 -49
-31 -61 -12 -36 -24 -27 -42 32 -17 54 -17 56 6 129 21 68 40 91 40 49z m140
6 c0 -6 25 -68 56 -138 31 -69 72 -161 90 -203 19 -43 50 -115 70 -160 52
-118 66 -149 119 -273 26 -60 88 -195 138 -300 94 -199 307 -664 307 -670 0
-9 343 -733 444 -937 95 -192 108 -223 84 -207 -71 51 -117 124 -270 427 -85
169 -170 343 -190 387 -38 83 -214 453 -358 750 -45 94 -95 197 -110 230 -15
33 -56 119 -90 190 -65 137 -284 624 -330 735 l-27 65 23 45 c13 25 24 51 24
58 0 15 20 16 20 1z m15 -349 c48 -107 99 -221 112 -253 24 -59 199 -434 318
-682 37 -77 109 -228 160 -335 51 -107 121 -253 155 -325 34 -71 79 -166 100
-210 71 -153 251 -510 284 -567 l34 -56 -51 26 c-58 30 -83 64 -187 247 -88
157 -776 1538 -894 1795 -54 118 -113 247 -131 285 -57 124 -61 140 -45 182
28 78 42 105 49 97 4 -5 48 -97 96 -204z m-237 44 l23 -46 -72 -166 c-103
-241 -314 -707 -527 -1162 -46 -101 -161 -355 -232 -515 -32 -71 -72 -161 -90
-200 -18 -38 -48 -110 -67 -160 -19 -49 -66 -157 -103 -240 -38 -82 -107 -240
-153 -350 -79 -187 -280 -618 -311 -668 -7 -12 -43 -78 -78 -147 -81 -157
-118 -214 -203 -315 -37 -44 -73 -95 -81 -113 -17 -39 -28 -43 -13 -4 8 22 -1
16 -52 -33 -61 -59 -61 -60 -30 -15 54 77 82 122 78 127 -5 4 -12 -5 -100
-121 -29 -38 -63 -76 -77 -85 -23 -15 -15 -4 85 121 8 9 22 29 31 45 10 15 34
44 53 64 67 68 121 134 154 189 44 73 173 329 232 460 25 58 91 196 146 306
67 136 97 208 92 220 -4 11 -3 15 4 11 5 -4 15 5 22 19 16 35 13 44 -4 14 -8
-14 -14 -19 -15 -12 0 6 8 20 18 30 9 10 24 38 33 62 42 114 133 314 195 430
68 127 181 357 225 455 24 55 46 102 49 105 11 11 22 37 192 445 55 132 116
278 135 325 19 47 63 150 98 230 35 80 97 228 138 330 42 102 96 234 121 294
25 60 46 111 46 113 0 2 3 3 8 3 4 0 17 -21 30 -46z m1350 -504 c114 -253 179
-400 212 -484 17 -44 47 -113 67 -155 19 -42 68 -150 108 -241 40 -91 101
-226 135 -300 34 -74 82 -182 105 -240 62 -151 141 -335 176 -408 17 -34 43
-99 58 -145 53 -154 220 -521 446 -981 181 -369 267 -519 359 -626 17 -19 17
-21 2 -10 -143 111 -600 995 -780 1510 -51 146 -95 259 -108 276 -9 13 -94
210 -153 354 -43 106 -154 354 -179 400 -8 14 -33 72 -56 130 -24 58 -46 110
-50 115 -11 13 -82 175 -191 430 -50 116 -112 257 -139 315 -49 107 -100 229
-100 239 1 11 17 -23 88 -179z m-354 -298 c24 -49 46 -102 50 -118 7 -28 22
-59 166 -359 114 -236 150 -314 225 -485 75 -170 149 -323 307 -635 190 -374
216 -426 313 -630 55 -116 156 -325 226 -465 70 -140 130 -266 134 -280 23
-79 127 -241 234 -366 14 -16 -8 4 -49 45 -77 77 -156 198 -250 381 -43 84
-197 379 -303 580 -31 58 -77 155 -103 215 -25 61 -94 207 -151 325 -58 118
-157 323 -220 455 -104 217 -144 303 -248 545 -54 123 -120 269 -168 371 -62
132 -103 228 -142 335 -18 50 -43 110 -54 132 -12 23 -19 42 -16 42 3 0 25
-40 49 -88z m-1317 -1198 c-3 -3 -12 -4 -19 -1 -8 3 -5 6 6 6 11 1 17 -2 13
-5z m-1316 -65 c-10 -30 -34 -85 -53 -124 -52 -104 -84 -172 -117 -250 -17
-38 -30 -64 -31 -56 0 14 67 171 137 321 25 52 52 112 60 133 23 56 26 39 4
-24z m1996 -5 c-3 -3 -12 -4 -19 -1 -8 3 -5 6 6 6 11 1 17 -2 13 -5z m-47 -74
c127 -11 403 -50 396 -57 -3 -4 -128 9 -366 37 -47 5 -103 10 -124 10 -38 0
-39 -1 -20 -16 18 -15 18 -15 -11 -9 -16 4 -36 12 -44 18 -8 7 -30 17 -50 24
-34 11 -32 11 29 7 36 -2 121 -9 190 -14z m61 -56 c74 -18 345 -64 384 -64 23
0 27 -3 15 -10 -12 -8 -9 -10 12 -10 32 0 131 -20 126 -26 -2 -2 -44 3 -93 11
-50 8 -137 21 -195 29 -58 9 -143 27 -190 41 -47 15 -111 29 -142 32 -32 3
-58 10 -58 15 0 11 55 4 141 -18z m9 -54 l75 -20 -63 5 c-34 3 -77 12 -95 20
-47 21 -7 18 83 -5z m403 -91 c129 -13 188 -27 117 -27 -25 -1 -85 3 -135 8
-56 5 -126 4 -186 -3 -102 -11 -173 0 -89 14 25 4 67 8 93 8 29 1 46 5 42 11
-4 6 5 8 22 5 15 -2 77 -10 136 -16z m171 -88 c48 -21 252 -165 304 -214 17
-17 32 -26 32 -20 0 15 -66 71 -173 146 -146 101 -142 96 -54 81 42 -7 90 -20
106 -29 34 -17 73 -70 122 -165 18 -36 50 -94 72 -129 21 -35 120 -224 219
-420 100 -196 194 -375 210 -398 42 -62 27 -53 -33 20 -270 326 -648 687
-1079 1031 -74 60 -137 113 -139 119 -3 7 54 8 183 4 153 -6 196 -10 230 -26z
m398 -196 c23 -38 60 -101 83 -140 24 -38 66 -115 95 -170 56 -107 70 -128 70
-105 0 18 -113 241 -149 293 -15 23 -43 71 -61 107 -19 36 -42 79 -53 95 l-20
30 23 -21 c12 -12 32 -38 44 -57 11 -20 42 -66 68 -104 53 -78 132 -232 159
-312 11 -29 34 -77 53 -105 18 -28 59 -103 91 -166 92 -186 316 -552 464 -762
23 -32 39 -58 37 -58 -7 0 -143 167 -195 240 -83 118 -207 323 -276 460 -69
138 -201 359 -190 320 4 -14 34 -72 65 -130 32 -58 83 -155 114 -216 30 -61
79 -151 109 -200 30 -49 64 -109 77 -134 12 -25 34 -61 48 -80 24 -32 24 -33
3 -15 -30 26 -122 159 -179 260 -25 44 -106 199 -180 345 -203 399 -322 624
-378 711 -13 21 -24 42 -24 46 1 16 62 -64 102 -132z m-3219 70 c-3 -9 -8 -14
-10 -11 -3 3 -2 9 2 15 9 16 15 13 8 -4z m3330 -84 c37 -44 112 -183 207 -381
25 -52 60 -119 79 -150 18 -30 46 -85 61 -122 27 -63 43 -92 160 -283 27 -44
70 -116 97 -160 26 -43 63 -102 82 -130 53 -79 15 -36 -50 57 -117 167 -215
327 -311 511 -54 104 -107 202 -118 218 -12 16 -41 75 -65 132 -71 171 -106
239 -149 292 -23 28 -48 59 -56 69 -32 42 25 -6 63 -53z m158 -63 c15 -28 5
-21 -21 15 -15 20 -17 27 -6 18 9 -8 22 -23 27 -33z m55 -203 c41 -66 118
-208 170 -315 172 -352 205 -414 274 -510 74 -103 160 -249 115 -195 -14 17
-25 34 -25 39 0 4 -39 63 -86 130 -156 221 -213 318 -361 616 -80 162 -161
325 -180 361 -38 77 -44 106 -7 39 13 -25 58 -99 100 -165z m75 108 c43 -62
35 -63 -13 -1 -61 78 -65 85 -39 63 13 -11 36 -39 52 -62z m-86 37 c10 -11 16
-20 13 -20 -3 0 -13 9 -23 20 -10 11 -16 20 -13 20 3 0 13 -9 23 -20z m205
-251 c12 -24 47 -82 77 -129 79 -124 154 -253 149 -257 -3 -3 -88 131 -260
412 -17 28 -59 82 -95 120 -50 54 -45 51 21 -16 48 -48 96 -106 108 -130z
m-119 56 l10 -20 -16 20 c-9 11 -21 29 -26 40 l-10 20 16 -20 c9 -11 21 -29
26 -40z m265 -379 c21 -32 53 -81 70 -110 17 -28 56 -89 87 -135 31 -46 75
-120 99 -163 45 -82 178 -288 225 -348 l27 -35 -28 25 c-49 43 -136 167 -210
298 -40 70 -105 175 -146 234 -41 58 -94 139 -118 180 -23 40 -56 96 -74 123
-41 67 -128 223 -128 231 0 4 35 -49 78 -117 43 -68 96 -150 118 -183z m-28
200 c49 -71 86 -136 78 -136 -2 0 -16 20 -31 45 -14 25 -48 74 -74 109 -60 79
-70 96 -43 72 11 -10 43 -50 70 -90z m40 -336 c33 -58 62 -117 66 -133 4 -15
20 -50 37 -78 17 -27 29 -52 26 -55 -10 -10 -77 111 -77 138 0 17 -5 27 -12
25 -7 -1 -12 6 -12 15 1 10 -2 15 -7 12 -5 -3 -9 2 -9 10 0 8 -8 30 -19 48
-10 18 -35 65 -55 103 -53 101 -7 39 62 -85z m235 -155 c36 -66 82 -147 103
-180 21 -33 61 -97 90 -142 79 -124 49 -100 -43 35 -79 116 -172 280 -213 377
-32 76 -10 43 63 -90z m-87 -55 c14 -25 49 -85 79 -135 30 -49 55 -96 55 -103
0 -8 20 -45 45 -84 25 -38 41 -67 36 -64 -15 10 -101 142 -101 156 0 6 -21 44
-47 83 -55 84 -142 254 -112 217 12 -14 32 -45 45 -70z m-3902 -235 c-9 -14
-19 -23 -22 -20 -5 4 26 45 35 45 2 0 -4 -11 -13 -25z m4525 -109 c8 -12 -7
-1 -33 24 -26 25 -54 59 -62 75 -11 21 -2 14 33 -24 26 -30 54 -64 62 -75z
m-519 -13 c0 -8 -9 0 -50 45 l-45 47 48 -45 c26 -24 47 -45 47 -47z m-4070 64
c0 -2 -10 -12 -22 -23 l-23 -19 19 23 c18 21 26 27 26 19z m4085 -47 c10 -11
16 -20 13 -20 -3 0 -13 9 -23 20 -10 11 -16 20 -13 20 3 0 13 -9 23 -20z m46
-37 c13 -16 12 -17 -3 -4 -10 7 -18 15 -18 17 0 8 8 3 21 -13z m189 -18 c13
-14 21 -25 18 -25 -2 0 -15 11 -28 25 -13 14 -21 25 -18 25 2 0 15 -11 28 -25z
m-249 -2 c13 -16 12 -17 -3 -4 -10 7 -18 15 -18 17 0 8 8 3 21 -13z m594 -13
c10 -11 16 -20 13 -20 -3 0 -13 9 -23 20 -10 11 -16 20 -13 20 3 0 13 -9 23
-20z m-480 -20 c10 -11 16 -20 13 -20 -3 0 -13 9 -23 20 -10 11 -16 20 -13 20
3 0 13 -9 23 -20z m36 -7 c13 -16 12 -17 -3 -4 -10 7 -18 15 -18 17 0 8 8 3
21 -13z m44 -3 c10 -11 16 -20 13 -20 -3 0 -13 9 -23 20 -10 11 -16 20 -13 20
3 0 13 -9 23 -20z m-4421 -31 c-16 -17 -48 -44 -71 -60 -49 -34 -179 -89 -208
-89 -11 1 19 16 67 34 94 36 169 80 208 121 13 14 26 25 29 25 2 0 -8 -14 -25
-31z m-339 -159 c-11 -5 -29 -9 -40 -9 l-20 0 20 9 c11 5 29 9 40 9 l20 0 -20
-9z m5730 -40 c17 -19 17 -20 -9 -30 -15 -5 -38 -10 -52 -10 -24 0 -24 1 -9
30 18 35 44 39 70 10z"/>
<path d="M6320 1801 c0 -6 4 -13 10 -16 6 -3 7 1 4 9 -7 18 -14 21 -14 7z"/>
<path d="M6470 1523 c1 -4 19 -42 40 -83 28 -52 40 -68 40 -51 0 13 -14 48
-31 77 -29 51 -49 75 -49 57z"/>
<path d="M3051 3077 c-6 -8 -17 -32 -25 -54 -8 -23 -44 -101 -80 -175 -36 -74
-97 -212 -137 -308 -39 -96 -87 -213 -106 -259 -28 -68 -156 -335 -193 -403
-6 -10 -10 -26 -9 -35 0 -13 3 -11 11 7 6 14 51 106 98 205 78 161 119 253
262 595 22 52 61 136 88 187 26 51 58 123 70 160 13 37 27 74 33 81 13 16 2
16 -12 -1z"/>
<path d="M2372 1588 c-10 -18 -45 -77 -76 -130 -32 -54 -77 -117 -101 -141
-24 -24 -53 -64 -65 -88 l-21 -44 28 32 c101 114 163 204 221 321 42 84 49
108 14 50z"/>
<path d="M4776 2742 c55 -43 148 -116 208 -163 176 -135 537 -497 639 -639 12
-17 15 -18 8 -4 -55 118 -451 512 -716 713 -55 41 -127 97 -159 123 -33 26
-64 48 -69 48 -5 0 35 -35 89 -78z"/>
<path d="M4920 2748 c201 -152 362 -286 454 -376 54 -53 90 -83 78 -67 -20 30
-161 163 -277 262 -86 73 -315 243 -328 243 -5 0 27 -28 73 -62z"/>
<path d="M3930 6140 c-8 -5 -10 -10 -5 -10 6 0 17 5 25 10 8 5 11 10 5 10 -5
0 -17 -5 -25 -10z"/>
<path d="M3813 5923 c-22 -20 -40 -53 -61 -113 -17 -47 -58 -150 -92 -230 -34
-80 -86 -201 -115 -270 -28 -69 -82 -183 -119 -254 -68 -134 -73 -146 -56
-146 6 0 10 4 10 9 0 14 47 111 86 176 30 51 36 50 17 -2 -3 -7 -3 -13 1 -13
3 0 14 28 25 63 29 94 133 354 224 562 19 44 40 98 47 120 8 24 15 34 18 25 7
-21 43 -72 48 -67 3 2 -5 26 -16 53 -18 41 -19 50 -7 59 18 13 40 55 29 55 -4
0 -22 -12 -39 -27z"/>
<path d="M3692 5779 c-32 -75 -34 -97 -2 -30 17 35 28 66 25 69 -2 3 -13 -15
-23 -39z"/>
<path d="M3652 5753 c-11 -16 -32 -56 -46 -91 -14 -34 -122 -257 -240 -495
-117 -237 -229 -466 -249 -507 -19 -41 -94 -198 -166 -347 -72 -150 -131 -275
-131 -277 0 -14 -100 -236 -189 -418 -55 -114 -112 -236 -127 -270 -14 -35
-43 -97 -64 -138 -20 -41 -41 -86 -45 -100 -4 -14 -26 -63 -47 -110 -93 -199
-231 -514 -280 -635 -53 -134 -118 -279 -270 -610 -142 -309 -214 -456 -259
-521 -77 -112 -227 -221 -367 -264 l-55 -17 54 -14 c128 -32 255 -8 375 73 80
53 194 178 194 211 0 13 -14 0 -43 -40 -85 -114 -199 -193 -332 -228 -67 -17
-152 -20 -175 -5 -12 8 -10 10 8 10 13 0 58 16 100 36 57 27 98 57 155 113 70
68 168 201 173 235 1 7 14 39 29 72 71 154 78 166 87 152 8 -10 9 -9 5 4 -3 9
9 53 27 98 34 83 53 115 42 70 -5 -20 -4 -21 3 -5 5 11 14 39 20 63 8 27 16
40 23 36 7 -4 8 -3 4 5 -4 6 -4 21 -1 32 6 17 9 19 17 8 7 -10 8 -8 3 7 -8 29
4 61 16 42 7 -10 9 -10 10 2 6 46 18 82 28 76 4 -3 7 4 7 14 -1 11 3 18 7 17
4 -1 23 34 41 78 19 44 59 136 89 205 30 69 72 166 92 215 21 50 82 187 136
306 54 119 104 237 111 262 6 25 15 44 19 42 6 -5 39 71 39 91 0 10 59 156 67
164 3 3 2 -9 -2 -25 -3 -17 7 4 23 45 16 41 49 118 74 170 67 140 101 215 159
352 29 68 58 130 64 138 6 8 22 42 34 75 12 33 31 78 42 100 17 36 18 37 14
10 -3 -16 3 -7 13 22 10 29 21 55 25 59 4 4 7 15 7 24 0 9 11 31 24 49 14 18
37 66 52 107 15 41 29 74 31 74 2 0 1 -10 -3 -22 -14 -48 7 -8 44 82 74 181
116 275 123 280 12 9 317 623 349 704 17 43 37 91 46 107 18 37 11 37 -14 2z"/>
<path d="M3906 5478 c7 -51 33 15 -399 -1043 -179 -441 -199 -491 -214 -540
-8 -27 -28 -75 -44 -105 -16 -30 -39 -84 -53 -120 -13 -36 -67 -153 -120 -261
-53 -108 -96 -205 -95 -215 0 -10 7 -1 15 21 8 22 54 119 103 215 48 96 94
193 101 215 7 22 25 65 40 95 15 30 51 118 79 195 29 77 68 178 88 225 20 47
59 144 88 215 186 461 335 823 375 910 48 105 59 148 50 189 -12 54 -21 57
-14 4z"/>
<path d="M3412 5152 c-45 -93 -82 -171 -82 -175 0 -3 -11 -22 -24 -42 -14 -20
-32 -59 -42 -88 -9 -29 -32 -83 -49 -122 -18 -38 -51 -119 -74 -180 -23 -60
-46 -117 -52 -125 -19 -29 -51 -103 -54 -124 -1 -11 -8 -34 -14 -49 -6 -16
-10 -47 -10 -70 2 -33 3 -36 6 -12 2 17 17 69 33 117 17 47 30 94 30 103 0 9
4 14 8 11 11 -7 26 23 52 104 12 36 51 133 86 215 36 83 72 167 81 188 9 20
19 37 23 37 4 0 13 15 20 33 8 17 31 70 52 115 21 46 38 88 38 93 0 5 14 37
31 70 17 34 29 63 26 65 -2 2 -40 -72 -85 -164z"/>
<path d="M3442 5008 c-35 -75 -65 -164 -60 -179 2 -6 25 45 50 112 26 68 45
125 43 127 -2 2 -17 -25 -33 -60z"/>
<path d="M3324 4875 c-7 -19 -14 -37 -14 -40 0 -3 -25 -63 -56 -133 -31 -70
-69 -161 -84 -202 -16 -41 -44 -109 -64 -150 -19 -41 -38 -93 -41 -115 -5 -36
-4 -34 13 15 10 30 31 77 46 104 15 26 56 119 91 205 35 86 76 188 93 226 31
74 46 125 37 125 -3 0 -13 -16 -21 -35z"/>
<path d="M3362 4864 c-2 -34 -39 -162 -51 -179 -4 -5 -18 -37 -31 -70 -13 -33
-57 -132 -97 -220 -75 -162 -129 -302 -120 -311 3 -3 19 32 36 78 18 46 54
130 82 188 28 57 82 182 121 277 59 147 69 179 65 220 -2 29 -4 36 -5 17z"/>
<path d="M3516 4585 c-9 -26 -7 -32 5 -12 6 10 9 21 6 23 -2 3 -7 -2 -11 -11z"/>
<path d="M2982 4221 c-6 -17 -9 -31 -6 -31 7 0 25 52 20 57 -2 2 -8 -10 -14
-26z"/>
<path d="M2948 4103 c-14 -38 -44 -113 -66 -168 -21 -55 -85 -194 -141 -310
-117 -239 -168 -356 -349 -795 -52 -125 -168 -393 -299 -685 -144 -323 -343
-724 -425 -854 -98 -157 -215 -261 -346 -307 -53 -19 -61 -24 -36 -24 72 0
174 58 269 154 60 59 154 204 226 348 17 35 37 66 43 70 6 4 7 8 1 8 -5 0 -5
4 2 8 19 12 238 468 302 629 8 18 17 31 21 28 5 -3 6 5 2 17 -3 12 -1 19 5 15
5 -3 37 60 70 141 33 81 97 232 141 336 45 104 79 194 75 200 -3 6 -2 8 2 3 5
-4 19 11 32 34 26 46 30 62 8 33 -8 -10 -15 -17 -15 -14 0 7 67 170 79 191 5
9 33 74 61 145 28 71 66 154 85 186 19 31 35 59 35 62 0 4 32 72 71 153 39 80
86 189 106 242 19 53 44 120 54 150 29 79 18 83 -13 4z"/>
<path d="M2920 4123 c-5 -16 -17 -41 -26 -58 -24 -43 -134 -319 -123 -308 17
17 173 393 163 393 -2 0 -9 -12 -14 -27z"/>
<path d="M3041 4134 c0 -11 3 -14 6 -6 3 7 2 16 -1 19 -3 4 -6 -2 -5 -13z"/>
<path d="M2991 4124 c0 -11 3 -14 6 -6 3 7 2 16 -1 19 -3 4 -6 -2 -5 -13z"/>
<path d="M3041 4089 c-2 -32 -135 -344 -220 -518 -23 -47 -41 -96 -40 -110 0
-21 3 -17 13 15 7 22 23 58 34 80 77 142 225 498 219 528 -2 12 -5 14 -6 5z"/>
<path d="M2940 3968 c-14 -46 -33 -99 -43 -118 -50 -97 -147 -328 -147 -352 0
-34 -68 -242 -81 -246 -5 -2 -9 -8 -9 -12 0 -14 -87 -219 -114 -270 -13 -25
-54 -124 -91 -220 -100 -257 -230 -559 -275 -637 -36 -61 -53 -97 -115 -248
-9 -22 -12 -35 -7 -30 5 6 24 44 42 85 41 94 113 239 133 265 17 22 -65 -215
-132 -385 -36 -89 -62 -205 -43 -185 3 3 7 18 8 33 1 15 15 63 32 107 17 44
33 91 37 104 5 15 10 19 14 12 4 -6 21 32 37 86 16 54 44 141 62 193 19 52 34
105 35 117 1 11 5 19 8 17 11 -6 19 24 12 43 -4 10 -2 14 5 9 6 -3 14 3 18 16
4 13 24 64 45 113 76 182 120 298 116 309 -4 12 34 133 52 163 16 27 13 -3 -4
-52 -8 -21 -13 -41 -11 -43 2 -2 12 18 21 45 10 26 47 120 82 208 103 256 112
282 127 365 13 77 42 147 158 389 31 64 52 123 55 152 3 27 3 49 1 49 -2 0
-15 -37 -28 -82z m-470 -1233 c-16 -47 -23 -40 -8 8 6 20 13 35 16 33 2 -3 -1
-21 -8 -41z m-209 -512 c-12 -20 -14 -14 -5 12 4 9 9 14 11 11 3 -2 0 -13 -6
-23z"/>
<path d="M2715 3679 c-4 -6 -5 -12 -2 -15 2 -3 7 2 10 11 7 17 1 20 -8 4z"/>
<path d="M2941 3498 c-1 -9 -19 -51 -41 -92 -22 -42 -65 -133 -96 -203 -30
-71 -76 -170 -100 -221 -24 -51 -44 -94 -44 -96 0 -2 -28 -64 -63 -137 -35
-74 -69 -145 -75 -159 -16 -36 -14 -11 3 45 24 82 9 61 -19 -24 -14 -45 -39
-109 -55 -143 -16 -35 -57 -128 -91 -207 -33 -79 -72 -166 -86 -193 -14 -28
-24 -52 -21 -54 6 -6 167 336 167 355 0 5 4 11 8 13 18 7 80 147 75 170 -3 17
-2 19 5 9 8 -11 11 -9 17 8 3 11 12 27 19 34 13 13 148 294 161 335 4 13 22
54 40 90 18 37 36 78 40 92 4 14 22 54 40 90 18 36 36 76 40 90 4 14 25 62 47
107 22 45 38 87 35 95 -4 9 -6 8 -6 -4z"/>
<path d="M2687 3423 c-20 -43 -48 -109 -62 -148 -15 -38 -35 -86 -45 -105 -24
-44 -51 -112 -47 -116 4 -5 92 189 112 245 8 24 19 49 24 55 12 15 62 138 58
143 -2 2 -20 -32 -40 -74z"/>
<path d="M2771 3414 c0 -11 3 -14 6 -6 3 7 2 16 -1 19 -3 4 -6 -2 -5 -13z"/>
<path d="M2941 3114 c0 -11 3 -14 6 -6 3 7 2 16 -1 19 -3 4 -6 -2 -5 -13z"/>
<path d="M2856 2945 c-9 -26 -7 -32 5 -12 6 10 9 21 6 23 -2 3 -7 -2 -11 -11z"/>
<path d="M2632 2933 c-5 -10 -6 -27 -1 -38 5 -14 8 -15 9 -5 1 8 3 25 6 38 5
26 -2 29 -14 5z"/>
<path d="M3810 2905 c-357 -80 -694 -290 -904 -565 -11 -14 25 20 80 76 148
150 309 265 495 352 139 66 229 95 384 127 71 15 132 28 134 31 12 11 -96 0
-189 -21z"/>
<path d="M2594 2843 c-10 -26 -21 -52 -23 -58 -2 -5 3 -3 11 5 16 17 43 88 35
96 -2 2 -13 -17 -23 -43z"/>
<path d="M2551 2739 c-14 -42 -7 -49 9 -9 7 17 10 33 8 36 -3 3 -11 -9 -17
-27z"/>
<path d="M2999 2749 c-23 -19 -23 -20 -2 -10 12 6 25 16 28 21 10 16 -1 12
-26 -11z"/>
<path d="M3040 2595 c-20 -24 -6 -28 15 -5 10 11 13 20 8 20 -6 0 -16 -7 -23
-15z"/>
<path d="M2864 2288 l-19 -23 23 19 c12 11 22 21 22 23 0 8 -8 2 -26 -19z"/>
<path d="M2771 2167 c-13 -21 -12 -21 5 -5 10 10 16 20 13 22 -3 3 -11 -5 -18
-17z"/>
<path d="M2705 2080 c-9 -16 -13 -30 -11 -30 3 0 12 14 21 30 9 17 13 30 11
30 -3 0 -12 -13 -21 -30z"/>
<path d="M2231 1969 c-6 -18 -11 -37 -10 -43 0 -6 7 7 15 28 8 22 12 41 10 43
-2 2 -9 -10 -15 -28z"/>
<path d="M2016 1805 c-14 -36 -26 -75 -26 -88 0 -12 14 16 30 62 36 101 33
119 -4 26z"/>
<path d="M1932 1628 c-22 -51 -52 -122 -66 -157 -14 -36 -34 -76 -43 -90 -27
-40 -44 -74 -39 -78 6 -6 24 23 79 129 46 88 122 277 114 284 -3 3 -23 -37
-45 -88z"/>
<path d="M1792 1685 c-17 -37 -14 -45 4 -12 9 16 14 31 11 33 -2 2 -9 -7 -15
-21z"/>
<path d="M2513 1558 c-15 -20 -25 -38 -20 -38 3 0 12 11 21 25 17 26 16 35 -1
13z"/>
</g>
</svg>
